<svg width="32" height="32" viewBox="0 0 32 32" fill="none" xmlns="http://www.w3.org/2000/svg">
<g clip-path="url(#clip0_1_9)">
<g clip-path="url(#clip1_1_9)">
<rect width="32" height="32" rx="4" fill="#FFEDD1"/>
<g clip-path="url(#clip2_1_9)">
<path d="M5 7.3125C5 6.9644 5.13828 6.63056 5.38442 6.38442C5.63056 6.13828 5.9644 6 6.3125 6H12.875C13.2231 6 13.5569 6.13828 13.8031 6.38442C14.0492 6.63056 14.1875 6.9644 14.1875 7.3125V25.6875C14.1875 26.0356 14.0492 26.3694 13.8031 26.6156C13.5569 26.8617 13.2231 27 12.875 27H6.3125C5.9644 27 5.63056 26.8617 5.38442 26.6156C5.13828 26.3694 5 26.0356 5 25.6875V7.3125ZM16.8125 7.3125C16.8125 6.9644 16.9508 6.63056 17.1969 6.38442C17.4431 6.13828 17.7769 6 18.125 6H24.6875C25.0356 6 25.3694 6.13828 25.6156 6.38442C25.8617 6.63056 26 6.9644 26 7.3125V13.875C26 14.2231 25.8617 14.5569 25.6156 14.8031C25.3694 15.0492 25.0356 15.1875 24.6875 15.1875H18.125C17.7769 15.1875 17.4431 15.0492 17.1969 14.8031C16.9508 14.5569 16.8125 14.2231 16.8125 13.875V7.3125ZM16.8125 19.125C16.8125 18.7769 16.9508 18.4431 17.1969 18.1969C17.4431 17.9508 17.7769 17.8125 18.125 17.8125H24.6875C25.0356 17.8125 25.3694 17.9508 25.6156 18.1969C25.8617 18.4431 26 18.7769 26 19.125V25.6875C26 26.0356 25.8617 26.3694 25.6156 26.6156C25.3694 26.8617 25.0356 27 24.6875 27H18.125C17.7769 27 17.4431 26.8617 17.1969 26.6156C16.9508 26.3694 16.8125 26.0356 16.8125 25.6875V19.125Z" fill="black"/>
</g>
</g>
</g>
<defs>
<clipPath id="clip0_1_9">
<rect width="32" height="32" fill="white"/>
</clipPath>
<clipPath id="clip1_1_9">
<rect width="32" height="32" fill="white"/>
</clipPath>
<clipPath id="clip2_1_9">
<rect width="21" height="21" fill="white" transform="translate(5 6)"/>
</clipPath>
</defs>
</svg>
